<svg width="22" height="25" viewBox="0 0 22 25" fill="none" xmlns="http://www.w3.org/2000/svg">
<path d="M6.428 20.7353L6.381 21.5183C6.368 21.7503 6.351 21.9823 6.331 22.2133C6.302 22.5383 6.27 23.3203 5.847 23.3203H5.831C5.793 23.3203 5.745 23.3523 5.745 23.4043V23.9063C5.745 23.9613 5.781 23.9993 5.831 23.9993H5.869C6.187 23.9983 6.466 23.9643 6.706 23.6013C6.782 23.4873 6.848 23.3593 6.895 23.2143C6.94633 23.0554 6.98413 22.8925 7.008 22.7273C7.035 22.5473 7.058 22.3503 7.076 22.1343C7.093 21.9183 7.11 21.6843 7.127 21.4303L7.147 21.0703H8.152V23.9123C8.152 23.9603 8.194 24.0043 8.245 23.9993H8.841C8.904 23.9993 8.935 23.9563 8.935 23.9073V20.6453C8.9341 20.6106 8.92632 20.5764 8.91212 20.5448C8.89793 20.5131 8.87758 20.4846 8.85228 20.4609C8.82698 20.4372 8.79722 20.4187 8.76473 20.4066C8.73223 20.3945 8.69766 20.3889 8.663 20.3903H6.688C6.536 20.3903 6.446 20.5233 6.439 20.6333C6.437 20.6653 6.429 20.6983 6.428 20.7353ZM0.254 24.0003H1.606C2.274 24.0243 2.82 23.5603 2.842 22.8683C2.842 22.8083 2.846 22.7383 2.83 22.6603C2.712 22.0943 2.264 21.7043 1.694 21.7043H0.783001V21.0613H2.337C2.397 21.0623 2.432 21.0213 2.43 20.9633V20.5053C2.431 20.4423 2.408 20.3903 2.337 20.3923H0.273001C0.0630007 20.3923 0 20.5463 0 20.6463V23.7463C0 23.8863 0.11 24.0003 0.254 24.0003ZM16.69 23.8923V22.6853H17.545C17.7363 22.6845 17.9244 22.6359 18.092 22.5437C18.2596 22.4515 18.4014 22.3188 18.5045 22.1576C18.6076 21.9964 18.6686 21.812 18.6819 21.6212C18.6953 21.4303 18.6606 21.2392 18.581 21.0653C18.5154 20.9164 18.4182 20.7835 18.2961 20.6759C18.174 20.5684 18.03 20.4886 17.874 20.4423C17.7451 20.4068 17.6117 20.39 17.478 20.3923H16.172C16.1385 20.3909 16.1051 20.3963 16.0736 20.408C16.0422 20.4198 16.0135 20.4377 15.9891 20.4607C15.9647 20.4837 15.9451 20.5113 15.9315 20.542C15.918 20.5727 15.9106 20.6057 15.91 20.6393C15.91 20.6593 15.907 20.6823 15.907 20.7063V23.9133C15.9067 23.9251 15.9089 23.9368 15.9133 23.9477C15.9178 23.9587 15.9244 23.9686 15.9328 23.9768C15.9413 23.9851 15.9513 23.9915 15.9624 23.9957C15.9734 23.9999 15.9852 24.0018 15.997 24.0013H16.603C16.6189 24.0012 16.6345 23.9968 16.6481 23.9885C16.6616 23.9802 16.6727 23.9684 16.68 23.9543C16.6879 23.9346 16.6913 23.9134 16.69 23.8923ZM17.864 21.5393C17.8643 21.6014 17.8522 21.663 17.8285 21.7204C17.8048 21.7779 17.77 21.8301 17.726 21.874C17.682 21.9179 17.6297 21.9526 17.5722 21.9762C17.5147 21.9997 17.4531 22.0117 17.391 22.0113H16.691V21.0663H17.359C17.662 21.0563 17.864 21.2863 17.864 21.5393ZM14.657 23.2493L14.858 23.9183C14.875 23.9793 14.908 24.0003 14.947 24.0003H15.598C15.659 24.0003 15.698 23.9503 15.684 23.8883L14.616 20.6743C14.566 20.5173 14.491 20.3923 14.308 20.3923H13.846C13.8007 20.3881 13.7551 20.396 13.7138 20.4151C13.6726 20.4343 13.6371 20.464 13.611 20.5013C13.5739 20.5536 13.5465 20.6122 13.53 20.6743L12.463 23.8843C12.439 23.9563 12.499 24.0003 12.547 24.0003H13.173C13.193 24.0003 13.236 24.0033 13.263 23.9473C13.2692 23.9327 13.2743 23.9176 13.278 23.9023L13.478 23.2493H14.658H14.657ZM13.664 22.6103L13.859 21.9583L14.055 21.2243H14.085L14.276 21.9583L14.472 22.6103H13.664ZM11.497 22.0803V22.0553C11.6069 21.9889 11.701 21.8995 11.773 21.7933C11.8505 21.678 11.9055 21.549 11.935 21.4133L12.172 20.4933C12.1741 20.4807 12.1734 20.4678 12.1699 20.4555C12.1664 20.4433 12.1603 20.4319 12.152 20.4223C12.1437 20.4127 12.1334 20.405 12.1218 20.3998C12.1102 20.3947 12.0977 20.3921 12.085 20.3923H11.523C11.5025 20.3917 11.4822 20.3951 11.463 20.4023C11.443 20.4103 11.428 20.4323 11.42 20.4643L11.188 21.3303C11.1674 21.4204 11.1301 21.5059 11.078 21.5823C11.0387 21.6393 10.9871 21.6868 10.927 21.7213C10.8747 21.7502 10.8179 21.7702 10.759 21.7803C10.7051 21.7888 10.6506 21.7928 10.596 21.7923H10.189V20.4783C10.1892 20.4669 10.187 20.4557 10.1827 20.4452C10.1784 20.4347 10.1721 20.4252 10.164 20.4173C10.1562 20.4093 10.1468 20.403 10.1365 20.3987C10.1262 20.3944 10.1152 20.3922 10.104 20.3923H9.5C9.448 20.3923 9.407 20.4293 9.407 20.4743V23.9183C9.407 23.9663 9.452 24.0003 9.5 24.0003H10.097C10.146 24.0003 10.189 23.9673 10.189 23.9183V22.3893H10.606C10.726 22.3873 10.826 22.3993 10.909 22.4233C10.9888 22.4447 11.0604 22.4893 11.115 22.5513C11.169 22.6143 11.215 22.7043 11.25 22.8213L11.567 23.9393C11.584 23.9843 11.616 24.0003 11.649 24.0003H12.246C12.322 24.0043 12.344 23.9313 12.336 23.8973L12.016 22.7033C11.9981 22.6321 11.9764 22.562 11.951 22.4933C11.9287 22.4328 11.8984 22.3757 11.861 22.3233C11.8216 22.2697 11.7732 22.2233 11.718 22.1863C11.6493 22.1415 11.575 22.1058 11.497 22.0803ZM5.574 23.8823V23.4083C5.574 23.3733 5.547 23.3213 5.487 23.3213H4.088C4.05284 23.3209 4.01813 23.3134 3.98599 23.2991C3.95386 23.2849 3.925 23.2642 3.90119 23.2383C3.87738 23.2124 3.85913 23.1819 3.84758 23.1487C3.83602 23.1155 3.8314 23.0803 3.834 23.0453V22.3583H5.32C5.34291 22.3588 5.3651 22.3503 5.38177 22.3345C5.39843 22.3188 5.40822 22.2972 5.409 22.2743V21.7913C5.409 21.7413 5.374 21.7043 5.311 21.7043H3.834V21.3193C3.834 21.1563 3.97 21.0663 4.088 21.0663H5.482C5.4999 21.0673 5.51768 21.0627 5.53289 21.0532C5.54811 21.0437 5.56002 21.0298 5.567 21.0133C5.57159 21.0025 5.57397 20.9909 5.574 20.9793V20.4793C5.574 20.4293 5.537 20.3923 5.476 20.3923L4.024 20.3853C3.76834 20.3857 3.5231 20.4866 3.34111 20.6662C3.15912 20.8458 3.05493 21.0896 3.051 21.3453V23.0533C3.0544 23.3044 3.15608 23.5442 3.33424 23.7212C3.5124 23.8983 3.75284 23.9984 4.004 24.0003H5.485C5.49663 24.0007 5.50822 23.9987 5.51907 23.9945C5.52992 23.9903 5.5398 23.9839 5.54812 23.9758C5.55644 23.9677 5.56303 23.9579 5.56747 23.9472C5.57192 23.9364 5.57414 23.9249 5.574 23.9133V23.8823ZM20.529 21.0663V23.9183C20.529 23.9673 20.486 24.0003 20.437 24.0003H19.84C19.792 24.0003 19.747 23.9663 19.747 23.9183V21.0663H18.81C18.762 21.0663 18.728 21.0213 18.728 20.9733V20.4843C18.728 20.4353 18.761 20.3923 18.81 20.3923H21.482C21.531 20.3923 21.564 20.4353 21.564 20.4843V20.9743C21.564 21.0213 21.529 21.0663 21.482 21.0663H20.529ZM2.029 22.8263C2.037 23.1113 1.813 23.3163 1.529 23.3163H0.783001V22.3583H1.534C1.8 22.3583 2.02 22.5423 2.029 22.8273V22.8263Z" fill="#B2B2B2"/>
<path fill-rule="evenodd" clip-rule="evenodd" d="M13.6461 15.1803L12.4531 17.3123V16.3723L13.6461 15.1803ZM16.0121 6.80233L13.2961 9.51833C13.2584 9.55635 13.2372 9.60776 13.2372 9.66133C13.2372 9.7149 13.2584 9.7663 13.2961 9.80433L14.6281 11.1363L16.4961 11.3333H12.6561C12.6024 11.3333 12.551 11.3546 12.5129 11.3924C12.4749 11.4303 12.4534 11.4817 12.4531 11.5353V13.3383L13.6631 14.8783L10.9471 12.1613C10.9091 12.1239 10.8579 12.1029 10.8046 12.1029C10.7513 12.1029 10.7001 12.1239 10.6621 12.1613L9.36611 13.4573L9.12611 15.3823V11.5423C9.12611 11.4885 9.10472 11.4369 9.06665 11.3988C9.02858 11.3607 8.97695 11.3393 8.92311 11.3393H6.98311L5.55311 12.5073L8.26811 9.79133C8.30585 9.7533 8.32702 9.7019 8.32702 9.64833C8.32702 9.59476 8.30585 9.54335 8.26811 9.50533L6.90811 8.14533L5.06611 7.97033H8.90611C8.93272 7.97046 8.95909 7.96533 8.98372 7.95524C9.00834 7.94515 9.03073 7.93029 9.04959 7.91152C9.06845 7.89275 9.08342 7.87044 9.09364 7.84586C9.10385 7.82129 9.10911 7.79494 9.10911 7.76833V5.93433L7.91011 4.43033L10.6261 7.14633C10.6641 7.18407 10.7155 7.20525 10.7691 7.20525C10.8227 7.20525 10.8741 7.18407 10.9121 7.14633L12.2471 5.81033L12.4441 3.92733V7.76733C12.4441 7.87933 12.5351 7.97033 12.6461 7.97033H14.5591L16.0111 6.80233H16.0121ZM16.6981 13.2053V11.5353L17.3811 13.8893L16.6981 13.2053ZM20.3831 10.8873L17.4661 7.97033L16.2981 6.80233L18.4251 7.97033C18.4786 7.97007 18.5298 7.9487 18.5677 7.91087C18.6055 7.87305 18.6268 7.82182 18.6271 7.76833V3.92833C18.6272 3.90163 18.6221 3.87518 18.6119 3.85049C18.6018 3.8258 18.5868 3.80337 18.5679 3.78449C18.5491 3.76561 18.5266 3.75067 18.502 3.74051C18.4773 3.73036 18.4508 3.7252 18.4241 3.72533H14.3341L14.9981 3.06133L14.3341 3.72533H12.6471L14.9981 3.06133C15.0169 3.04257 15.0318 3.02028 15.042 2.99574C15.0522 2.9712 15.0574 2.9449 15.0574 2.91833C15.0574 2.89176 15.0522 2.86546 15.042 2.84092C15.0318 2.81638 15.0169 2.79409 14.9981 2.77533L12.2821 0.059329C12.2633 0.0405223 12.2411 0.0256015 12.2165 0.0154209C12.192 0.00524035 12.1657 0 12.1391 0C12.1125 0 12.0862 0.00524035 12.0617 0.0154209C12.0372 0.0256015 12.0149 0.0405223 11.9961 0.059329L9.11011 2.94733L7.87511 4.19633V4.19733L7.87611 4.19433L7.88211 4.18233L9.11011 1.99033C9.11011 1.93676 9.08883 1.88538 9.05094 1.84749C9.01306 1.80961 8.96168 1.78833 8.90811 1.78833H5.06711C5.01362 1.78859 4.96239 1.80996 4.92456 1.84778C4.88674 1.88561 4.86537 1.93684 4.86511 1.99033V7.76733L4.18511 5.41933C4.14704 5.38128 4.09543 5.35991 4.04161 5.35991C3.98779 5.35991 3.93618 5.38128 3.89811 5.41933L1.18311 8.13533C1.1643 8.15409 1.14938 8.17638 1.1392 8.20092C1.12902 8.22546 1.12378 8.25176 1.12378 8.27833C1.12378 8.3049 1.12902 8.3312 1.1392 8.35574C1.14938 8.38028 1.1643 8.40257 1.18311 8.42133L5.26811 12.5063L3.14711 11.3383C3.09362 11.3386 3.04239 11.36 3.00456 11.3978C2.96674 11.4356 2.94537 11.4868 2.94511 11.5403V15.3803C2.94511 15.4923 3.03511 15.5833 3.14711 15.5833H8.92411L6.57811 16.2453C6.54037 16.2834 6.51919 16.3348 6.51919 16.3883C6.51919 16.4419 6.54037 16.4933 6.57811 16.5313L9.29411 19.2473C9.33196 19.285 9.3832 19.3062 9.43661 19.3062C9.49002 19.3062 9.54125 19.285 9.57911 19.2473L12.4541 16.3723V17.3113C12.4541 17.4213 12.5451 17.5133 12.6561 17.5133H16.4971C16.5506 17.5131 16.6018 17.4917 16.6397 17.4539C16.6775 17.416 16.6988 17.3648 16.6991 17.3113V13.2043L17.3821 13.8883C17.4201 13.9261 17.4715 13.9472 17.5251 13.9472C17.5787 13.9472 17.6301 13.9261 17.6681 13.8883L20.3841 11.1723C20.4218 11.1343 20.443 11.0829 20.443 11.0293C20.443 10.9758 20.4218 10.9244 20.3841 10.8863L20.3831 10.8873Z" fill="#B2B2B2"/>
</svg>
