<svg width="41" height="10" viewBox="0 0 41 10" fill="none" xmlns="http://www.w3.org/2000/svg">
<path d="M7.54524 0.5895H0.946647C0.822531 0.589206 0.699575 0.613379 0.584808 0.660639C0.470041 0.707899 0.365716 0.777317 0.277797 0.864925C0.189878 0.952533 0.12009 1.05661 0.0724233 1.17121C0.0247567 1.28581 0.000146535 1.40868 0 1.53279V8.10568C0 8.6265 0.424706 9.04897 0.946647 9.04897H7.54524C7.66935 9.04926 7.79231 9.02509 7.90708 8.97783C8.02184 8.93057 8.12617 8.86115 8.21409 8.77354C8.302 8.68594 8.37179 8.58186 8.41946 8.46726C8.46713 8.35266 8.49174 8.22979 8.49188 8.10568V1.53279C8.49188 1.40858 8.46738 1.28559 8.41978 1.17087C8.37218 1.05614 8.30241 0.951927 8.21448 0.864201C8.12655 0.776475 8.02217 0.706957 7.90733 0.659628C7.79249 0.612298 7.66945 0.588088 7.54524 0.588382V0.5895Z" fill="#B2B2B2"/>
<path fill-rule="evenodd" clip-rule="evenodd" d="M5.75031 6.87861H4.73772C4.72388 6.87833 4.71068 6.8727 4.70089 6.86291C4.6911 6.85312 4.68548 6.83992 4.68519 6.82608V6.57573L3.92296 7.33573C3.91294 7.34549 3.8995 7.35096 3.88552 7.35096C3.87153 7.35096 3.85809 7.34549 3.84808 7.33573L3.13278 6.62491C3.12302 6.61489 3.11756 6.60145 3.11756 6.58746C3.11756 6.57348 3.12302 6.56004 3.13278 6.55002L3.30937 6.37344H2.23196C2.21774 6.37335 2.20411 6.36774 2.19396 6.35779C2.18417 6.34798 2.17857 6.33476 2.17831 6.32091V5.30944C2.17831 5.30244 2.1797 5.29552 2.18241 5.28907C2.18512 5.28262 2.18909 5.27678 2.19409 5.27189C2.19909 5.267 2.20501 5.26315 2.21151 5.26058C2.21801 5.25801 2.22497 5.25676 2.23196 5.25691H2.48231L1.72008 4.49691C1.71031 4.48689 1.70485 4.47345 1.70485 4.45946C1.70485 4.44548 1.71031 4.43204 1.72008 4.42202L2.43537 3.70896C2.44035 3.70396 2.44628 3.7 2.4528 3.69729C2.45932 3.69458 2.46631 3.69319 2.47337 3.69319C2.48043 3.69319 2.48742 3.69458 2.49394 3.69729C2.50046 3.7 2.50639 3.70396 2.51137 3.70896L2.68796 3.88555V2.81261C2.68792 2.80199 2.6911 2.7916 2.69709 2.78282C2.70307 2.77404 2.71158 2.76728 2.72149 2.76344C2.72792 2.76104 2.73475 2.7599 2.7416 2.76008H3.75419C3.76109 2.76008 3.76792 2.76144 3.7743 2.76408C3.78067 2.76672 3.78646 2.77059 3.79134 2.77547C3.79621 2.78035 3.80008 2.78614 3.80272 2.79251C3.80536 2.79888 3.80672 2.80571 3.80672 2.81261V3.06185L4.56896 2.30185C4.57898 2.29208 4.59241 2.28662 4.6064 2.28662C4.62039 2.28662 4.63382 2.29208 4.64384 2.30185L5.36025 3.01714C5.36968 3.0271 5.37494 3.0403 5.37494 3.05402C5.37494 3.06774 5.36968 3.08094 5.36025 3.09091L5.18255 3.26749H6.26108C6.27492 3.26778 6.28811 3.27341 6.2979 3.2832C6.30769 3.29299 6.31332 3.30618 6.31361 3.32002V4.32926C6.31332 4.3431 6.30769 4.3563 6.2979 4.36609C6.28811 4.37588 6.27492 4.3815 6.26108 4.38179H6.0096L6.77184 5.14179C6.78127 5.15175 6.78653 5.16495 6.78653 5.17867C6.78653 5.19239 6.78127 5.20559 6.77184 5.21555L6.05655 5.92861C6.05159 5.93364 6.04567 5.93762 6.03914 5.94031C6.03261 5.94299 6.02561 5.94434 6.01855 5.94426C6.01149 5.94428 6.00451 5.9429 5.99799 5.94022C5.99147 5.93753 5.98554 5.93359 5.98055 5.92861L5.80396 5.75202V6.82608C5.80367 6.84012 5.79788 6.85348 5.78786 6.8633C5.77783 6.87312 5.76435 6.87861 5.75031 6.87861ZM5.61955 4.06773L5.2239 4.38179H4.73884C4.725 4.3815 4.7118 4.37588 4.70201 4.36609C4.69222 4.3563 4.6866 4.3431 4.68631 4.32926V3.32002L4.62931 3.82073L4.28508 4.16273C4.27487 4.17256 4.26125 4.17806 4.24708 4.17806C4.2329 4.17806 4.21928 4.17256 4.20908 4.16273L3.80784 3.76485L3.4949 3.45079L3.80784 3.84532V4.33038C3.80755 4.34422 3.80193 4.35741 3.79214 4.3672C3.78235 4.37699 3.76915 4.38262 3.75531 4.38291H2.74272L3.24566 4.43991L3.58878 4.78191C3.59389 4.78671 3.59796 4.79251 3.60074 4.79895C3.60353 4.80539 3.60496 4.81233 3.60496 4.81935C3.60496 4.82636 3.60353 4.8333 3.60074 4.83974C3.59796 4.84618 3.59389 4.85198 3.58878 4.85679L2.87349 5.56985L3.26913 5.25691H3.75531C3.7623 5.2569 3.76923 5.2583 3.77567 5.26101C3.78212 5.26372 3.78796 5.26769 3.79286 5.27268C3.79775 5.27768 3.80159 5.28361 3.80417 5.29011C3.80674 5.29661 3.80799 5.30356 3.80784 5.31055V6.31867L3.86596 5.81908L4.20908 5.47485C4.21941 5.46526 4.23298 5.45994 4.24708 5.45994C4.26117 5.45994 4.27474 5.46526 4.28508 5.47485L5.00037 6.18902L4.68631 5.79449V5.31055C4.68631 5.29662 4.69185 5.28326 4.7017 5.27341C4.71155 5.26356 4.72491 5.25802 4.73884 5.25802H5.75143L5.24849 5.19991L4.90537 4.85679C4.90043 4.852 4.89649 4.84627 4.89381 4.83993C4.89112 4.8336 4.88973 4.82679 4.88972 4.81991C4.88964 4.81285 4.89099 4.80584 4.89368 4.79931C4.89636 4.79278 4.90034 4.78686 4.90537 4.78191L5.30772 4.38291L5.62066 4.06773H5.61955Z" fill="white"/>
<path fill-rule="evenodd" clip-rule="evenodd" d="M13.0263 3.97708C13.0374 4.3705 12.7267 4.6555 12.3311 4.6555H11.2917V3.3255H12.3378C12.4259 3.32237 12.5139 3.33681 12.5964 3.36799C12.6789 3.39916 12.7544 3.44645 12.8185 3.50709C12.8826 3.56773 12.9339 3.64052 12.9696 3.72121C13.0053 3.8019 13.0245 3.88888 13.0263 3.97708ZM38.7936 1.53391V5.49038C38.7934 5.5149 38.7857 5.53877 38.7715 5.55876C38.7573 5.57875 38.7373 5.5939 38.7143 5.60214C38.6989 5.60799 38.6826 5.61065 38.6662 5.60997H37.8324C37.8002 5.61152 37.7687 5.60049 37.7445 5.57922C37.7203 5.55794 37.7054 5.52808 37.7028 5.49597V1.53391H36.3985C36.3666 1.53134 36.3369 1.51652 36.3156 1.49257C36.2944 1.46862 36.2832 1.43737 36.2845 1.40538V0.726967C36.2834 0.71081 36.2855 0.694595 36.2907 0.679251C36.2958 0.663907 36.304 0.649737 36.3147 0.637555C36.3253 0.62564 36.3382 0.615949 36.3525 0.609043C36.3669 0.602137 36.3826 0.598152 36.3985 0.597321H40.1203C40.1527 0.599336 40.183 0.614103 40.2046 0.638396C40.2261 0.662689 40.2372 0.694531 40.2354 0.726967V1.40538C40.2369 1.43763 40.2257 1.46918 40.2041 1.49323C40.1826 1.51728 40.1525 1.53189 40.1203 1.53391H38.7936ZM17.964 5.4412V4.77956C17.964 4.74754 17.9513 4.71684 17.9287 4.6942C17.906 4.67157 17.8753 4.65885 17.8433 4.65885H15.8986C15.8497 4.65852 15.8013 4.64815 15.7566 4.62839C15.7118 4.60862 15.6716 4.57989 15.6384 4.54395C15.6052 4.50802 15.5797 4.46566 15.5635 4.41948C15.5473 4.3733 15.5408 4.3243 15.5443 4.2755V3.32661H17.6142C17.645 3.3258 17.6743 3.31336 17.6963 3.29179C17.7183 3.27023 17.7313 3.24114 17.7327 3.21038V2.54203C17.7333 2.51587 17.7253 2.49022 17.71 2.46902C17.6946 2.44783 17.6728 2.43225 17.6477 2.42467C17.6311 2.41953 17.6136 2.418 17.5963 2.4202H15.541V1.88708C15.5407 1.84058 15.5496 1.79448 15.5674 1.75148C15.5851 1.70849 15.6112 1.66946 15.6442 1.63668C15.6772 1.6039 15.7164 1.57802 15.7595 1.56057C15.8026 1.54311 15.8487 1.53443 15.8953 1.53503H17.84C17.8565 1.53595 17.873 1.53347 17.8885 1.52774C17.904 1.52202 17.9181 1.51317 17.9301 1.50175C17.942 1.49033 17.9515 1.47658 17.9579 1.46135C17.9643 1.44611 17.9675 1.42973 17.9674 1.4132V0.720261C17.9675 0.702923 17.9639 0.68576 17.9569 0.669897C17.9499 0.654034 17.9396 0.639831 17.9268 0.62822C17.9139 0.61661 17.8987 0.607855 17.8822 0.602529C17.8657 0.597204 17.8483 0.595429 17.831 0.597321L15.8081 0.588379C15.4532 0.589451 15.1127 0.729085 14.8593 0.977525C14.6058 1.22597 14.4594 1.56356 14.4513 1.91838V4.29003C14.4539 4.64025 14.5946 4.97529 14.8428 5.22241C15.0909 5.46954 15.4266 5.6088 15.7768 5.60997H17.8411C17.8572 5.61042 17.8732 5.60762 17.8881 5.60175C17.9031 5.59587 17.9167 5.58703 17.9282 5.57576C17.9397 5.56449 17.9488 5.55102 17.9549 5.53616C17.9611 5.5213 17.9642 5.50535 17.964 5.48926V5.4412ZM26.2134 2.94103V2.90526C26.3665 2.81361 26.4984 2.68956 26.599 2.54203C26.7063 2.3822 26.7823 2.20338 26.8225 2.0145L27.1533 0.740379C27.1587 0.713918 27.1548 0.686418 27.1424 0.662434C27.13 0.638449 27.1098 0.61942 27.0851 0.608496C27.069 0.601 27.0515 0.597183 27.0337 0.597321H26.2547C26.2263 0.596362 26.1981 0.601706 26.172 0.612967C26.1557 0.621174 26.1416 0.633171 26.1309 0.647952C26.1202 0.662732 26.1132 0.679864 26.1105 0.697908L25.7887 1.89826C25.7595 2.02293 25.7076 2.14115 25.6355 2.24697C25.58 2.32608 25.5074 2.39176 25.4232 2.4392C25.3502 2.47992 25.2709 2.50789 25.1885 2.52191C25.1147 2.53308 25.0398 2.53867 24.965 2.53867H24.3927V0.719143C24.3928 0.695593 24.3859 0.672553 24.3727 0.653019C24.3596 0.633485 24.3408 0.618361 24.319 0.609614C24.3044 0.604006 24.2888 0.601347 24.2731 0.601791H23.4315C23.3995 0.599935 23.3679 0.610708 23.3437 0.631806C23.3195 0.652903 23.3045 0.682648 23.3019 0.714673V5.49373C23.3045 5.52585 23.3194 5.55571 23.3436 5.57698C23.3678 5.59826 23.3994 5.60929 23.4315 5.60773H24.2653C24.2894 5.60969 24.3134 5.60434 24.3344 5.59237C24.3553 5.5804 24.3721 5.56238 24.3827 5.54067C24.3896 5.52596 24.3934 5.50998 24.3938 5.49373V3.37132H24.975C25.117 3.36573 25.26 3.3825 25.3975 3.41714C25.5093 3.44732 25.6076 3.50991 25.6836 3.59597C25.7708 3.70692 25.834 3.8348 25.8691 3.9715L26.3095 5.52167C26.3166 5.54665 26.3317 5.5686 26.3525 5.58415C26.3733 5.5997 26.3986 5.60799 26.4246 5.60773H27.2584C27.286 5.60918 27.3133 5.60109 27.3357 5.58481C27.3581 5.56853 27.3742 5.54506 27.3813 5.51832C27.3861 5.50084 27.3869 5.48249 27.3835 5.46467L26.9387 3.80273C26.9128 3.70436 26.8818 3.60737 26.846 3.51214C26.8149 3.42739 26.7724 3.34729 26.7197 3.27408C26.6648 3.20005 26.5975 3.13614 26.5207 3.0852C26.4245 3.02378 26.3209 2.97495 26.2123 2.93991L26.2134 2.94103ZM29.231 3.67867L29.5037 2.77338L29.7764 1.75967H29.8189L30.0849 2.7745L30.3576 3.67979H29.231V3.67867ZM30.6147 4.56497L30.8941 5.49373C30.9164 5.57867 30.9623 5.60773 31.017 5.60773H31.9245C31.9437 5.60824 31.9628 5.60417 31.98 5.59586C31.9973 5.58754 32.0124 5.57523 32.024 5.55993C32.0356 5.54463 32.0433 5.5268 32.0466 5.5079C32.0499 5.489 32.0487 5.46958 32.043 5.45126L30.5565 0.99185C30.485 0.776144 30.3822 0.600673 30.1274 0.600673H29.4847C29.4219 0.594554 29.3586 0.605069 29.3011 0.63116C29.2436 0.657251 29.194 0.698 29.1573 0.74932C29.1053 0.82241 29.0667 0.904148 29.0433 0.990731L27.5613 5.44456C27.5547 5.46307 27.5526 5.4829 27.5554 5.50236C27.5581 5.52182 27.5655 5.54033 27.5769 5.55632C27.5884 5.57217 27.6035 5.58501 27.621 5.59377C27.6386 5.60252 27.6579 5.60693 27.6775 5.60661H28.5493C28.5752 5.6097 28.6014 5.60414 28.6238 5.59081C28.6462 5.57747 28.6636 5.55709 28.6733 5.53285C28.6824 5.51259 28.6898 5.49166 28.6957 5.47026L28.974 4.56385L30.6147 4.56497ZM35.0819 2.1922C35.0824 2.32228 35.0439 2.44952 34.9714 2.5575C34.8989 2.66549 34.7957 2.74925 34.6751 2.79797C34.5954 2.83103 34.5099 2.84812 34.4236 2.84826H33.4457V1.53838H34.3789C34.4686 1.53292 34.5585 1.54576 34.6431 1.57612C34.7277 1.60648 34.8052 1.65373 34.8709 1.71499C34.9367 1.77625 34.9893 1.85025 35.0256 1.93248C35.0618 2.01471 35.081 2.10345 35.0819 2.19332V2.1922ZM33.4457 5.45797V3.7815H34.6382C34.8491 3.7798 35.0576 3.73648 35.2517 3.654C35.4458 3.57153 35.6217 3.45154 35.7693 3.30091C35.9926 3.0719 36.1416 2.78084 36.1968 2.46579C36.252 2.15073 36.2109 1.82634 36.0788 1.53503C35.9878 1.32775 35.8527 1.14284 35.6828 0.993234C35.5129 0.843623 35.3124 0.732916 35.0953 0.668849C34.9155 0.619245 34.7297 0.595167 34.5432 0.597321H32.7248C32.6783 0.595681 32.6319 0.60328 32.5883 0.619679C32.5448 0.636079 32.5049 0.660952 32.471 0.692861C32.4371 0.724769 32.4099 0.763079 32.3909 0.805575C32.372 0.848071 32.3616 0.893909 32.3604 0.940437C32.3604 0.970614 32.356 1.00079 32.3604 1.0332V5.48367C32.3602 5.50783 32.3673 5.53148 32.3809 5.55146C32.3945 5.57143 32.4139 5.58678 32.4364 5.59544C32.4513 5.60152 32.4673 5.60456 32.4834 5.60438H33.3305C33.3522 5.60391 33.3734 5.59766 33.3919 5.58626C33.4104 5.57486 33.4255 5.55874 33.4356 5.53956C33.4467 5.51271 33.4513 5.48359 33.449 5.45461L33.4457 5.45797ZM10.5563 5.60997H12.4384C13.3649 5.64238 14.1283 4.99861 14.1595 4.04079C14.164 3.94467 14.1595 3.84856 14.1428 3.75356C13.9774 2.96673 13.3537 2.42691 12.5591 2.42691H11.2917V1.53391H13.4565C13.4743 1.53497 13.4921 1.53216 13.5087 1.52566C13.5253 1.51916 13.5403 1.50913 13.5526 1.49627C13.565 1.4834 13.5744 1.46801 13.5802 1.45116C13.5859 1.43431 13.588 1.4164 13.5862 1.39867V0.762732C13.5862 0.669967 13.5549 0.602909 13.4565 0.605144H10.5853C10.5367 0.601099 10.4877 0.607252 10.4415 0.623209C10.3954 0.639167 10.3531 0.664578 10.3173 0.697818C10.2816 0.731059 10.2531 0.771397 10.2338 0.816253C10.2145 0.861109 10.2048 0.909496 10.2053 0.95832V5.26126C10.2046 5.33113 10.225 5.39957 10.2639 5.45761C10.3028 5.51565 10.3584 5.56058 10.4233 5.5865C10.4665 5.60427 10.5128 5.61338 10.5596 5.61332L10.5563 5.60997ZM19.1532 1.08126L19.0884 2.16761C19.0671 2.53644 19.0437 2.8572 19.018 3.13103C18.9788 3.58256 18.933 4.66667 18.3451 4.66667H18.3217C18.2904 4.66721 18.2605 4.67965 18.2381 4.70145C18.2156 4.72325 18.2024 4.75278 18.201 4.78403V5.48032C18.1992 5.50546 18.2054 5.53051 18.2186 5.55195C18.2319 5.5734 18.2515 5.59017 18.2747 5.59991C18.2902 5.60661 18.307 5.61003 18.3239 5.60997H18.3753C18.8179 5.60997 19.2091 5.56079 19.5421 5.05673C19.6539 4.88908 19.7422 4.71026 19.8048 4.52026C19.8763 4.29897 19.9277 4.0732 19.9613 3.84297C20.0035 3.57013 20.0348 3.29572 20.0551 3.02038C20.0786 2.72197 20.1032 2.39673 20.1267 2.04467L20.1546 1.54397H21.5539V5.48814C21.5538 5.513 21.5613 5.5373 21.5755 5.5577C21.5897 5.57811 21.6099 5.59363 21.6333 5.60214C21.649 5.60764 21.6658 5.60992 21.6824 5.60885H22.5162C22.5422 5.61038 22.568 5.60362 22.5898 5.58957C22.6117 5.57551 22.6286 5.55487 22.638 5.53061C22.6442 5.5146 22.6468 5.49745 22.6458 5.48032V0.957202C22.6443 0.884591 22.6209 0.814133 22.5786 0.755088C22.5363 0.696043 22.4772 0.651174 22.4089 0.626379C22.3635 0.609609 22.3153 0.602011 22.267 0.604026H19.5142C19.4249 0.606959 19.3399 0.643233 19.276 0.705705C19.212 0.768176 19.1738 0.852317 19.1688 0.941555C19.1655 0.97732 19.1554 1.02426 19.1521 1.07567V1.08014L19.1532 1.08126ZM11.7901 7.30655L11.4649 7.8542L10.8468 8.85114C10.8287 8.87921 10.8093 8.90644 10.7887 8.93273C10.7728 8.95193 10.7539 8.96852 10.7328 8.98191C10.7123 8.99417 10.6895 9.00215 10.6658 9.00538C10.635 9.00938 10.604 9.01124 10.573 9.01097H10.4277C10.393 9.01562 10.3577 9.01197 10.3246 9.00032C10.2916 8.98866 10.2618 8.96933 10.2377 8.94391C10.2031 8.88884 10.1863 8.82445 10.1897 8.7595V6.53314C10.1897 6.4862 10.2154 6.46385 10.2668 6.46385H10.658C10.6915 6.46385 10.7138 6.46832 10.7217 6.47838C10.7328 6.49403 10.7362 6.51414 10.7351 6.53314V8.16603H10.7563L11.067 7.65638L11.6985 6.62367C11.7208 6.59014 11.741 6.56108 11.7577 6.53985C11.7716 6.51974 11.7895 6.50271 11.8103 6.48982C11.831 6.47694 11.8542 6.46848 11.8784 6.46497C11.9088 6.46091 11.9394 6.45905 11.9701 6.45938H12.1198C12.1529 6.45577 12.1864 6.45886 12.2183 6.46846C12.2502 6.47806 12.2798 6.49398 12.3054 6.51526C12.3477 6.57336 12.3676 6.64483 12.3613 6.71644V8.94614C12.3613 8.99197 12.3355 9.01544 12.283 9.01544H11.8874C11.8646 9.01757 11.8418 9.01206 11.8225 8.99979C11.8111 8.98435 11.8055 8.96532 11.8069 8.94614V7.30544H11.7901V7.30655ZM13.3962 8.93832C13.3962 8.96961 13.3917 8.98973 13.3805 8.99867C13.3598 9.00901 13.3366 9.01327 13.3135 9.01097H12.9469C12.8933 9.01097 12.8664 8.98638 12.8664 8.93832V7.16908C12.8664 7.12214 12.8933 7.09979 12.9469 7.09979H13.3135C13.3366 7.09749 13.3598 7.10175 13.3805 7.11208C13.3917 7.12103 13.3962 7.14003 13.3962 7.16797V7.79161H14.0802V7.16908C14.0802 7.12214 14.107 7.09979 14.1618 7.09979H14.5328C14.5552 7.09648 14.5781 7.10081 14.5977 7.11208C14.6101 7.12791 14.6157 7.148 14.6133 7.16797V8.93832C14.6133 8.96961 14.6133 8.98973 14.5977 8.99867C14.5775 9.00949 14.5544 9.01379 14.5317 9.01097H14.1618C14.107 9.01097 14.0802 8.98638 14.0802 8.93832V8.20626H13.3962V8.93832ZM16.0025 7.53009V8.93832C16.0025 8.96961 15.997 8.98973 15.9858 8.99867C15.9651 9.00925 15.9418 9.01353 15.9187 9.01097H15.5566C15.5007 9.01097 15.4728 8.98638 15.4728 8.93832V7.53009H14.9542C14.905 7.53009 14.8804 7.50214 14.8804 7.44961V7.1825C14.8785 7.15932 14.8831 7.13607 14.8938 7.11544C14.9017 7.10426 14.9218 7.09867 14.9542 7.09867H16.5278C16.5383 7.09688 16.5489 7.09736 16.5592 7.10006C16.5694 7.10276 16.5789 7.10762 16.5871 7.11432C16.5983 7.13444 16.6038 7.15903 16.6016 7.18138V7.4485C16.6016 7.50103 16.577 7.52785 16.5278 7.52785H16.0025V7.53009ZM17.603 7.05173C17.888 7.05173 18.1015 7.12326 18.2434 7.2652C18.3185 7.34717 18.3763 7.4435 18.4131 7.54837C18.45 7.65325 18.4653 7.7645 18.458 7.87544C18.4685 7.96786 18.442 8.06068 18.3843 8.13361C18.329 8.18234 18.2566 8.20725 18.1831 8.20291H17.2487C17.2487 8.26997 17.2621 8.33479 17.2867 8.39626C17.308 8.4432 17.3393 8.48567 17.3795 8.5192C17.4198 8.55121 17.4668 8.57375 17.517 8.58514C17.645 8.6097 17.7767 8.60704 17.9037 8.57732C17.973 8.56167 18.0411 8.53932 18.1071 8.5125C18.126 8.50411 18.1468 8.50065 18.1674 8.50244C18.1819 8.51006 18.1931 8.52281 18.1987 8.5382L18.315 8.79973C18.3199 8.80725 18.3229 8.81583 18.3239 8.82477C18.3249 8.8337 18.3237 8.84274 18.3205 8.85114C18.3115 8.86642 18.2983 8.87882 18.2825 8.88691C18.1868 8.94779 18.0808 8.99059 17.9696 9.0132C17.8602 9.03722 17.7486 9.04996 17.6365 9.0512C17.3169 9.0512 17.08 8.97185 16.9268 8.81538C16.7726 8.65891 16.6966 8.40744 16.6966 8.06432C16.6944 7.91903 16.7167 7.77373 16.7614 7.63626C16.8006 7.51867 16.8634 7.41029 16.9458 7.31773C17.0247 7.23068 17.1227 7.16299 17.232 7.11991C17.3499 7.07437 17.4755 7.05162 17.6019 7.05285L17.603 7.05173ZM17.6142 7.48985C17.5682 7.48828 17.5224 7.49688 17.4801 7.51504C17.4378 7.5332 17.4 7.56047 17.3694 7.59491C17.3037 7.66996 17.2648 7.7647 17.2588 7.86426H17.9428C17.9432 7.81385 17.9376 7.76357 17.926 7.7145C17.9166 7.67224 17.8987 7.63233 17.8735 7.59714C17.8477 7.56283 17.8134 7.53586 17.774 7.51891C17.7235 7.49771 17.6689 7.4878 17.6142 7.48985ZM19.3734 9.69162C19.3734 9.71844 19.3734 9.73632 19.3622 9.74191C19.3421 9.7518 19.3196 9.75568 19.2974 9.75309H18.9207C18.9007 9.75449 18.8807 9.75064 18.8626 9.74191C18.8514 9.7352 18.8436 9.71844 18.8436 9.69162V7.31661C18.8436 7.29426 18.8481 7.27303 18.857 7.25291C18.8723 7.23162 18.8932 7.21499 18.9174 7.20485C19.0425 7.14897 19.1744 7.11097 19.3097 7.09197C19.4471 7.06961 19.5857 7.05844 19.7254 7.05844C19.8746 7.05402 20.023 7.08066 20.1613 7.13667C20.2715 7.18238 20.3691 7.25399 20.4458 7.34543C20.5224 7.43688 20.5759 7.54546 20.6017 7.66197C20.6665 7.91622 20.6653 8.18282 20.5983 8.4365C20.5671 8.55038 20.514 8.65706 20.4418 8.75056C20.3696 8.84183 20.2769 8.91493 20.1714 8.96403C20.0512 9.01881 19.9201 9.04557 19.788 9.04226C19.649 9.04226 19.5104 9.02765 19.3745 8.99867V9.6905L19.3734 9.69162ZM20.0943 8.04197C20.0961 7.95758 20.0863 7.87333 20.0652 7.79161C20.0493 7.73104 20.0199 7.67486 19.9791 7.62732C19.9408 7.58623 19.8922 7.55613 19.8383 7.54014C19.7785 7.52226 19.7163 7.51359 19.6539 7.51444C19.5593 7.51578 19.4654 7.52969 19.3745 7.55579V8.54938C19.4742 8.57669 19.5773 8.58986 19.6807 8.5885C19.7363 8.5902 19.7916 8.58012 19.8431 8.55894C19.8945 8.53775 19.9409 8.50593 19.9791 8.46556C20.0574 8.38173 20.0954 8.24203 20.0954 8.04197H20.0943ZM21.5807 8.93832C21.5807 8.96961 21.5751 8.98973 21.564 8.99867C21.5432 9.00901 21.52 9.01327 21.4969 9.01097H21.1314C21.0778 9.01097 21.051 8.98638 21.051 8.93832V7.16908C21.051 7.12214 21.0778 7.09979 21.1314 7.09979H21.4969C21.52 7.09749 21.5432 7.10175 21.564 7.11208C21.5706 7.11966 21.5755 7.12857 21.5784 7.13821C21.5813 7.14785 21.5821 7.158 21.5807 7.16797V7.79161H22.2647V7.16908C22.2647 7.12214 22.2915 7.09979 22.3452 7.09979H22.7163C22.7393 7.09695 22.7627 7.10124 22.7833 7.11208C22.7893 7.11997 22.7937 7.12898 22.7962 7.13857C22.7987 7.14816 22.7992 7.15815 22.7978 7.16797V8.93832C22.7978 8.96961 22.7923 8.98973 22.7822 8.99867C22.7616 9.00951 22.7382 9.01381 22.7151 9.01097H22.3463C22.2915 9.01097 22.2647 8.98638 22.2647 8.93832V8.20626H21.5807V8.93832ZM24.0988 7.05173C24.3838 7.05173 24.5984 7.12326 24.7403 7.2652C24.8149 7.34744 24.8723 7.44384 24.909 7.54866C24.9456 7.65349 24.9609 7.76461 24.9538 7.87544C24.9643 7.96786 24.9377 8.06068 24.88 8.13361C24.8247 8.18234 24.7524 8.20725 24.6788 8.20291H23.7445C23.7445 8.26997 23.7579 8.33479 23.7825 8.39626C23.8029 8.44372 23.8343 8.48563 23.8741 8.51848C23.914 8.55134 23.9611 8.57419 24.0116 8.58514C24.1396 8.6097 24.2714 8.60704 24.3983 8.57732C24.4676 8.56167 24.5369 8.53932 24.6028 8.5125C24.6217 8.50387 24.6425 8.5004 24.6632 8.50244C24.6773 8.51027 24.688 8.52299 24.6934 8.5382L24.8096 8.79973C24.8145 8.80725 24.8176 8.81583 24.8186 8.82477C24.8195 8.8337 24.8184 8.84274 24.8152 8.85114C24.8062 8.86642 24.793 8.87882 24.7772 8.88691C24.6815 8.94792 24.5755 8.99074 24.4643 9.0132C24.3548 9.03721 24.2432 9.04994 24.1312 9.0512C23.8115 9.0512 23.5757 8.97185 23.4215 8.81538C23.2684 8.65891 23.198 8.40744 23.198 8.06432C23.1957 7.91903 23.217 7.77373 23.2617 7.63626C23.3012 7.51858 23.3643 7.41019 23.4472 7.31773C23.526 7.23106 23.6234 7.16342 23.7322 7.11991C23.8502 7.07437 23.9757 7.05162 24.1021 7.05285H24.0988V7.05173ZM24.11 7.48985C24.0639 7.48828 24.0181 7.49688 23.9758 7.51504C23.9335 7.5332 23.8958 7.56047 23.8652 7.59491C23.7995 7.66996 23.7606 7.7647 23.7545 7.86426H24.4385C24.4389 7.81385 24.4332 7.76359 24.4218 7.7145C24.4123 7.67224 24.3945 7.63233 24.3693 7.59714C24.3437 7.56313 24.3098 7.5362 24.2709 7.51891C24.22 7.49779 24.1651 7.48788 24.11 7.48985ZM26.2625 7.52897V8.93832C26.2625 8.96961 26.257 8.98973 26.2458 8.99867C26.225 9.00901 26.2018 9.01327 26.1787 9.01097H25.8166C25.7607 9.01097 25.7328 8.98638 25.7328 8.93832V7.53009H25.2131C25.165 7.53009 25.1404 7.50214 25.1404 7.44961V7.1825C25.1381 7.15943 25.1423 7.13617 25.1527 7.11544C25.1617 7.10426 25.1818 7.09867 25.2131 7.09867H26.7923C26.8026 7.09731 26.813 7.098 26.8229 7.10068C26.8329 7.10337 26.8423 7.108 26.8504 7.11432C26.8622 7.1346 26.8673 7.15806 26.865 7.18138V7.4485C26.865 7.50103 26.8404 7.52785 26.7923 7.52785H26.2625V7.52897ZM29.2768 8.94167C29.2782 8.95149 29.2777 8.96148 29.2752 8.97107C29.2727 8.98066 29.2683 8.98967 29.2623 8.99756C29.2422 9.00972 29.2185 9.01447 29.1953 9.01097H28.7974C28.7471 9.01097 28.7214 8.98861 28.7214 8.94167V6.94332H27.7367V8.94167C27.7391 8.96146 27.7339 8.98141 27.7222 8.99756C27.7023 9.00914 27.6791 9.01385 27.6563 9.01097H27.2539C27.2025 9.01097 27.1779 8.98861 27.1779 8.94167V6.70638C27.1728 6.64061 27.1914 6.57519 27.2304 6.52197C27.255 6.49894 27.2844 6.4816 27.3165 6.47117C27.3485 6.46074 27.3825 6.45748 27.416 6.46161H29.05C29.0832 6.45772 29.117 6.4611 29.1488 6.47152C29.1806 6.48194 29.2098 6.49916 29.2344 6.52197C29.2724 6.57561 29.2903 6.64044 29.2858 6.70638V8.94167H29.2768ZM31.4149 8.77403C31.4154 8.80144 31.4108 8.82871 31.4015 8.8545C31.3878 8.88161 31.3654 8.90328 31.3378 8.91597C31.2798 8.94393 31.2191 8.96602 31.1567 8.98191C31.0259 9.01483 30.8924 9.03541 30.7577 9.04338C30.6907 9.04338 30.6247 9.0512 30.5655 9.0512C30.4273 9.05451 30.2892 9.03871 30.1553 9.00426C30.0603 8.97907 29.9714 8.93497 29.8938 8.87461C29.8316 8.82369 29.7839 8.75743 29.7552 8.68238C29.6995 8.52002 29.7023 8.34332 29.763 8.18279C29.7944 8.10422 29.8433 8.03388 29.9061 7.97714C29.9751 7.91572 30.0562 7.86929 30.1441 7.84079C30.2547 7.80609 30.3702 7.78948 30.4861 7.79161H30.8851V7.73238C30.8851 7.69885 30.8818 7.66532 30.874 7.63403C30.8672 7.60311 30.8517 7.5748 30.8293 7.55244C30.8014 7.52654 30.7682 7.50708 30.732 7.49544C30.6788 7.47945 30.6233 7.4719 30.5677 7.47308C30.5308 7.47308 30.4895 7.47532 30.4425 7.47979L30.3051 7.4932C30.2201 7.50583 30.1358 7.52262 30.0525 7.5435C30.0309 7.55175 30.007 7.55175 29.9854 7.5435C29.9782 7.53763 29.9723 7.53032 29.9681 7.52205C29.9639 7.51378 29.9614 7.50471 29.9608 7.49544L29.9027 7.24061C29.8958 7.22262 29.8958 7.20272 29.9027 7.18473C29.9114 7.17116 29.925 7.16153 29.9407 7.15791C30.0525 7.11767 30.1687 7.08973 30.2872 7.07409C30.4057 7.0562 30.5253 7.04726 30.6448 7.04726C30.9108 7.04726 31.1053 7.10426 31.2283 7.21714C31.2931 7.28256 31.3432 7.36107 31.3752 7.44743C31.4072 7.53379 31.4203 7.62599 31.4138 7.71785V8.77403H31.4149ZM30.8851 8.14479H30.5968C30.5601 8.14476 30.5235 8.14737 30.4873 8.15261C30.4496 8.15638 30.4131 8.16779 30.38 8.18614C30.3415 8.20695 30.31 8.23859 30.2893 8.27713C30.2687 8.31567 30.2598 8.35942 30.2637 8.40297C30.2602 8.43781 30.2664 8.47295 30.2815 8.50451C30.2967 8.53607 30.3204 8.56281 30.3498 8.58179C30.4214 8.61903 30.5017 8.6364 30.5823 8.63208H30.6415C30.6661 8.63208 30.6907 8.63208 30.7197 8.62426C30.7465 8.61755 30.7756 8.61644 30.8047 8.61085C30.8322 8.60513 30.8591 8.5969 30.8851 8.58626V8.14479ZM32.4241 9.69162C32.4241 9.71844 32.4197 9.73632 32.4107 9.74191C32.3914 9.75161 32.3696 9.7555 32.3481 9.75309H31.9704C31.9504 9.75434 31.9304 9.75049 31.9123 9.74191C31.9 9.7352 31.8944 9.71844 31.8944 9.69162V7.31661C31.893 7.29479 31.8968 7.27295 31.9055 7.25291C31.9213 7.23162 31.9426 7.21501 31.967 7.20485C32.0922 7.14897 32.2241 7.10985 32.3604 7.09197C32.4968 7.06961 32.6354 7.05844 32.774 7.05844C32.9235 7.05383 33.0723 7.08048 33.211 7.13667C33.3208 7.18301 33.418 7.25481 33.4946 7.34616C33.5711 7.4375 33.6249 7.54575 33.6513 7.66197C33.7161 7.91622 33.715 8.18282 33.648 8.4365C33.6164 8.55046 33.5629 8.65715 33.4904 8.75056C33.4186 8.84187 33.3263 8.915 33.221 8.96403C33.1009 9.01896 32.9697 9.04572 32.8377 9.04226C32.6987 9.04214 32.5601 9.02753 32.4241 8.99867V9.6905V9.69162ZM33.1439 8.04197C33.1455 7.95752 33.1353 7.87327 33.1137 7.79161C33.0983 7.73086 33.0688 7.67459 33.0277 7.62732C32.9899 7.58614 32.9416 7.55601 32.888 7.54014C32.8278 7.52204 32.7652 7.51337 32.7024 7.51444C32.6082 7.51578 32.5146 7.52968 32.4241 7.55579V8.54938C32.5235 8.57677 32.6262 8.58994 32.7293 8.5885C32.7848 8.59013 32.8401 8.58002 32.8916 8.55884C32.943 8.53765 32.9894 8.50587 33.0277 8.46556C33.1059 8.38173 33.1439 8.24203 33.1439 8.04197ZM35.8732 8.04197C35.8732 8.36273 35.7961 8.61085 35.643 8.77961C35.4887 8.95061 35.2563 9.04226 34.9422 9.04226C34.6281 9.04226 34.3934 8.95508 34.247 8.78073C34.1017 8.60638 34.028 8.3605 34.028 8.04308C34.0263 7.90003 34.0482 7.75767 34.0928 7.62173C34.1281 7.50634 34.1891 7.40044 34.2711 7.31198C34.3532 7.22352 34.4542 7.1548 34.5667 7.11097C34.6895 7.06324 34.8205 7.03971 34.9523 7.04167C35.2585 7.04167 35.4887 7.13332 35.6441 7.30544C35.7983 7.47644 35.8765 7.72456 35.8765 8.03526L35.8732 8.04197ZM35.3177 8.05314C35.3177 7.97826 35.3121 7.90226 35.2987 7.82738C35.2891 7.76598 35.2683 7.70688 35.2373 7.65303C35.2099 7.60605 35.1711 7.56681 35.1244 7.53903C35.0719 7.50942 35.0124 7.49473 34.9523 7.49655C34.8957 7.4934 34.8394 7.50542 34.7891 7.53136C34.7388 7.5573 34.6963 7.59622 34.6661 7.64408C34.5986 7.76544 34.5665 7.90328 34.5734 8.04197C34.5647 8.18573 34.5944 8.32922 34.6594 8.45773C34.6893 8.5048 34.7313 8.54288 34.7811 8.56788C34.831 8.59288 34.8866 8.60387 34.9422 8.59967C35.0027 8.6017 35.0627 8.58701 35.1154 8.5572C35.1637 8.52889 35.204 8.48892 35.2328 8.44097C35.2648 8.38797 35.2871 8.32969 35.2987 8.26885C35.3129 8.19784 35.3196 8.12555 35.3188 8.05314H35.3177ZM37.7542 7.09532C37.7854 7.0915 37.8171 7.0943 37.8471 7.10355C37.8771 7.11279 37.9049 7.12827 37.9285 7.14897C37.9633 7.19806 37.9795 7.25783 37.9744 7.31773V8.93832C37.9758 8.94829 37.975 8.95846 37.9722 8.96811C37.9693 8.97776 37.9643 8.98667 37.9576 8.9942C37.937 9.00492 37.9137 9.00958 37.8905 9.00761H37.5195C37.4958 9.01032 37.472 9.00437 37.4524 8.99085C37.4398 8.97508 37.4338 8.95506 37.4357 8.93497V7.52897H36.9864L36.9752 7.71338C36.964 7.92573 36.9473 8.10679 36.9283 8.26103C36.913 8.39544 36.8791 8.52708 36.8277 8.6522C36.7851 8.75512 36.7174 8.84578 36.631 8.91597C36.5291 8.99229 36.4139 9.04878 36.2912 9.0825C36.2577 9.09479 36.2331 9.09703 36.2185 9.08808C36.201 9.07636 36.188 9.05902 36.1817 9.03891L36.0833 8.79191C36.073 8.77116 36.0687 8.74791 36.071 8.72485C36.071 8.71032 36.0923 8.69579 36.1235 8.68014C36.1813 8.65501 36.2349 8.62108 36.2823 8.57956C36.3271 8.53606 36.3609 8.48239 36.3806 8.42309C36.4119 8.33591 36.432 8.24426 36.441 8.15261C36.4566 8.03973 36.4689 7.89108 36.4812 7.70556L36.5069 7.30991C36.5043 7.24906 36.5242 7.18939 36.5628 7.14226C36.6118 7.10549 36.6728 7.08836 36.7338 7.0942L37.7553 7.09532H37.7542ZM38.6818 9.00761C38.6486 9.01227 38.6148 9.00958 38.5827 8.99973C38.5507 8.98988 38.5212 8.97311 38.4963 8.95061C38.4645 8.90569 38.4487 8.85135 38.4516 8.79638V7.16908C38.4516 7.12214 38.4795 7.09979 38.5332 7.09979H38.8975C38.9206 7.09749 38.9439 7.10175 38.9646 7.11208C38.9713 7.11962 38.9763 7.12852 38.9792 7.13818C38.982 7.14783 38.9828 7.15799 38.9814 7.16797V7.69661H39.4351C39.5797 7.69033 39.724 7.71589 39.8576 7.7715C39.9494 7.81344 40.0298 7.87666 40.0923 7.95591C40.1424 8.01889 40.1768 8.09279 40.1929 8.17161C40.2052 8.23197 40.2119 8.29456 40.213 8.35603C40.2142 8.44452 40.1964 8.53224 40.1607 8.61324C40.1251 8.69423 40.0724 8.7666 40.0063 8.82544C39.8635 8.94887 39.6808 9.01637 39.4921 9.01544L38.6807 9.00761H38.6818ZM39.6676 8.3415C39.6691 8.27776 39.6463 8.21584 39.6039 8.16826C39.5789 8.1432 39.5488 8.12384 39.5156 8.11149C39.4824 8.09915 39.447 8.09411 39.4117 8.09673H38.9814V8.59297H39.4072C39.4512 8.59418 39.4948 8.58499 39.5346 8.56614C39.5646 8.55273 39.5911 8.53269 39.6122 8.50752C39.6333 8.48235 39.6485 8.45271 39.6564 8.42085C39.664 8.39616 39.6685 8.37064 39.6698 8.34485L39.6676 8.3415Z" fill="#B2B2B2"/>
</svg>
