<svg width="41" height="21" viewBox="0 0 41 21" fill="none" xmlns="http://www.w3.org/2000/svg">
<path d="M0 8.54932H41V17.5493C41 18.345 40.68 19.108 40.1105 19.6706C39.5409 20.2332 38.7684 20.5493 37.963 20.5493H3.03704C2.23156 20.5493 1.45908 20.2332 0.889528 19.6706C0.319973 19.108 0 18.345 0 17.5493V8.54932Z" fill="#C9C9C9"/>
<path d="M13.6288 15.2476C13.7882 15.3398 14.0365 15.4201 14.2924 15.4201C14.6105 15.4201 14.7897 15.2716 14.7897 15.0526C14.7897 14.8478 14.6507 14.7286 14.3045 14.6041C13.849 14.4488 13.5597 14.2088 13.5597 13.8256C13.5597 13.3816 13.934 13.0501 14.5331 13.0501C14.8299 13.0501 15.0456 13.1138 15.1883 13.1821L15.0706 13.5818C14.9002 13.4968 14.7118 13.4531 14.5209 13.4543C14.2028 13.4543 14.0684 13.6178 14.0684 13.7768C14.0684 13.9853 14.2278 14.0806 14.5938 14.2171C15.0706 14.3971 15.2984 14.6326 15.2984 15.0158C15.2984 15.4516 14.9643 15.8236 14.2597 15.8236C13.9667 15.8236 13.666 15.7433 13.5149 15.6556L13.6288 15.2476ZM17.2451 14.5883H16.211V15.3796H17.3674V15.7831H15.7092V13.0898H17.3051V13.4933H16.2103V14.1886H17.2444V14.5883H17.2451ZM19.7332 15.7028C19.6155 15.7583 19.3551 15.8228 19.021 15.8228C18.1494 15.8228 17.6202 15.2866 17.6202 14.4676C17.6202 13.5811 18.2512 13.0493 19.0901 13.0493C19.4197 13.0493 19.652 13.1131 19.7537 13.1648L19.6474 13.5571C19.4775 13.4867 19.2949 13.4512 19.1106 13.4528C18.5526 13.4528 18.1494 13.7971 18.1494 14.4443C18.1494 15.0353 18.5002 15.4111 19.1061 15.4111C19.3058 15.4111 19.5176 15.3713 19.6527 15.3151L19.7332 15.7028ZM20.6178 13.0898V14.6603C20.6178 15.1876 20.8417 15.4313 21.1796 15.4313C21.5418 15.4313 21.7574 15.1876 21.7574 14.6603V13.0898H22.2585V14.6281C22.2585 15.4591 21.8227 15.8266 21.1629 15.8266C20.5282 15.8266 20.1167 15.4793 20.1167 14.6318V13.0898H20.6178ZM22.793 13.1296C22.9829 13.0936 23.2607 13.0696 23.55 13.0696C23.9448 13.0696 24.2091 13.1333 24.3966 13.2856C24.5469 13.4093 24.632 13.5968 24.632 13.8286C24.632 14.1758 24.3928 14.4121 24.1316 14.4998V14.5118C24.3313 14.5838 24.4497 14.7721 24.515 15.0316C24.6039 15.3668 24.6775 15.6788 24.7307 15.7831H24.2174C24.1764 15.7028 24.1073 15.4831 24.0344 15.1471C23.9524 14.7953 23.8264 14.6836 23.5417 14.6761H23.2888V15.7831H22.7923V13.1296H22.793ZM23.2888 14.3161H23.5865C23.9243 14.3161 24.1316 14.1398 24.1316 13.8728C24.1316 13.5803 23.9243 13.4408 23.5986 13.4408C23.4392 13.4408 23.3382 13.4528 23.2888 13.4648V14.3161ZM26.6045 14.5883H25.5697V15.3796H26.726V15.7831H25.0685V13.0898H26.6645V13.4933H25.5697V14.1886H26.6038V14.5883H26.6045Z" fill="white"/>
<path d="M17.4873 0.09825L15.2019 5.466H13.71L12.5847 1.182C12.5164 0.91875 12.4572 0.822 12.2491 0.71025C11.9105 0.5295 11.3502 0.35925 10.8574 0.25425L10.8908 0.09825H13.2916C13.5976 0.09825 13.8724 0.2985 13.9431 0.64575L14.5368 3.7515L16.0052 0.099L17.4873 0.09825ZM23.3321 3.71325C23.3381 2.29725 21.342 2.2185 21.3549 1.5855C21.3595 1.3935 21.5455 1.188 21.9532 1.1355C22.1552 1.11 22.7125 1.08975 23.345 1.3755L23.5925 0.23775C23.17 0.0820863 22.723 0.0015918 22.2721 0C20.8774 0 19.8956 0.72975 19.8881 1.7745C19.8789 2.547 20.5896 2.97825 21.1234 3.2355C21.6731 3.498 21.8576 3.6675 21.8553 3.903C21.8515 4.263 21.4157 4.422 21.011 4.428C20.3011 4.4385 19.8896 4.239 19.5616 4.089L19.3057 5.26575C19.636 5.41425 20.2441 5.54325 20.8743 5.55075C22.3579 5.55075 23.3267 4.82925 23.3321 3.71325ZM27.0152 5.466H28.3204L27.1807 0.09825H25.9766C25.8481 0.0970125 25.7221 0.133872 25.6151 0.204065C25.508 0.274258 25.4247 0.374558 25.376 0.492L23.2576 5.466H24.7405L25.0343 4.66425H26.8444L27.0152 5.466ZM25.4405 3.56475L26.1831 1.54875L26.6105 3.56475H25.4405ZM19.5039 0.09825L18.3369 5.466H16.9262L18.0932 0.09825H19.5039Z" fill="#C9C9C9"/>
</svg>
