<?xml version="1.0" standalone="no"?>
<!DOCTYPE svg PUBLIC "-//W3C//DTD SVG 20010904//EN"
 "http://www.w3.org/TR/2001/REC-SVG-20010904/DTD/svg10.dtd">
<svg version="1.0" xmlns="http://www.w3.org/2000/svg"
 width="256.000000pt" height="256.000000pt" viewBox="0 0 256.000000 256.000000"
 preserveAspectRatio="xMidYMid meet">

<g transform="translate(0.000000,256.000000) scale(0.100000,-0.100000)"
fill="#000000" stroke="none">
<path d="M534 1546 c-3 -9 -4 -28 -2 -41 3 -14 0 -25 -6 -26 -6 0 -78 -1 -161
-2 l-150 -2 0 -30 0 -30 188 -2 187 -3 0 35 0 35 58 0 c68 0 102 -23 102 -68
-1 -48 -20 -62 -89 -62 -59 0 -61 1 -61 26 0 23 -3 25 -32 22 -25 -2 -34 -8
-36 -25 -3 -20 1 -23 27 -23 31 0 31 0 31 -55 0 -55 0 -55 -31 -55 -27 0 -30
-3 -27 -27 2 -22 9 -29 31 -31 25 -3 27 -6 27 -52 0 -46 -2 -49 -27 -52 -22
-2 -28 -8 -28 -28 0 -25 1 -25 90 -28 161 -6 200 25 200 155 -1 66 -3 75 -30
103 -18 18 -26 34 -20 38 20 14 35 64 35 115 0 43 -5 59 -29 87 l-29 35 -106
3 c-90 3 -107 1 -112 -12z m204 -306 c27 -25 30 -85 5 -112 -12 -14 -31 -18
-80 -18 l-63 0 0 75 0 75 58 0 c45 0 63 -5 80 -20z"/>
<path d="M1102 1518 c3 -39 6 -43 31 -46 26 -3 27 -2 27 42 0 45 -1 46 -31 46
-29 0 -30 -1 -27 -42z"/>
<path d="M1520 1290 l0 -270 30 0 30 0 0 60 c0 55 19 110 39 110 3 0 14 -21
25 -48 47 -121 48 -122 78 -122 32 0 35 15 14 63 -7 18 -21 52 -31 77 -9 25
-23 59 -30 76 -12 28 -11 34 16 77 16 26 29 51 29 57 0 5 4 10 9 10 5 0 11 7
15 15 4 12 -4 15 -39 15 -28 0 -45 -5 -45 -12 0 -16 -60 -108 -71 -108 -5 0
-9 61 -9 135 l0 135 -30 0 -30 0 0 -270z"/>
<path d="M1807 1554 c-4 -4 -7 -126 -7 -271 l0 -263 30 0 c25 0 30 4 30 25 0
31 5 31 33 1 49 -52 100 -39 136 34 55 114 22 315 -55 334 -25 7 -84 -11 -84
-25 0 -5 -4 -9 -10 -9 -5 0 -11 39 -12 88 -3 85 -4 87 -28 90 -14 2 -29 0 -33
-4z m141 -213 c26 -16 42 -64 42 -125 0 -94 -26 -133 -79 -119 -47 12 -55 199
-11 235 25 20 30 21 48 9z"/>
<path d="M2405 1548 c-3 -7 -4 -128 -3 -268 l3 -255 30 0 30 0 0 265 0 265
-28 3 c-16 2 -29 -2 -32 -10z"/>
<path d="M140 1520 l0 -30 185 0 185 0 0 30 0 30 -185 0 -185 0 0 -30z"/>
<path d="M991 1401 c-25 -25 -31 -26 -31 -6 0 10 -10 15 -30 15 l-30 0 0 -195
0 -195 30 0 30 0 0 125 c0 145 14 191 54 181 20 -5 25 0 35 35 14 46 14 44
-16 53 -15 5 -28 1 -42 -13z"/>
<path d="M1315 1413 c-26 -7 -55 -33 -55 -49 0 -7 -6 -14 -12 -16 -10 -4 -13
-37 -13 -120 0 -132 16 -177 73 -204 69 -33 152 25 152 106 0 27 -3 30 -30 30
-22 0 -30 -5 -30 -18 0 -26 -20 -42 -51 -42 -44 0 -54 23 -54 121 0 80 2 89
24 108 13 12 27 21 31 21 12 0 50 -37 50 -49 0 -8 11 -11 28 -9 21 2 28 9 30
31 2 15 -1 27 -7 27 -6 0 -11 6 -11 13 0 34 -74 63 -125 50z"/>
<path d="M2184 1410 c-12 -5 -35 -25 -50 -46 -28 -36 -29 -42 -29 -144 0 -86
4 -113 19 -143 37 -67 123 -85 170 -34 23 25 44 73 35 81 -11 9 -59 15 -59 7
0 -15 -30 -41 -46 -41 -24 0 -54 38 -54 70 l0 30 86 0 87 0 -7 66 c-7 71 -22
108 -53 136 -24 22 -71 30 -99 18z m64 -78 c11 -10 22 -31 24 -48 3 -28 2 -29
-49 -32 l-53 -3 0 32 c0 20 8 39 22 50 26 23 30 23 56 1z"/>
<path d="M1100 1215 l0 -195 30 0 30 0 0 195 0 195 -30 0 -30 0 0 -195z"/>
<path d="M140 1371 c0 -27 2 -29 58 -34 31 -3 114 -6 185 -7 l127 -1 0 35 0
36 -185 0 -185 -1 0 -28z"/>
<path d="M210 1290 c0 -29 1 -30 53 -32 149 -6 178 -7 245 -2 72 6 73 6 70 32
l-3 27 -182 3 -183 2 0 -30z"/>
<path d="M140 1210 l0 -30 185 0 185 0 0 30 0 30 -185 0 -185 0 0 -30z"/>
<path d="M243 1162 c-29 -3 -33 -7 -33 -33 l0 -29 180 0 180 0 6 25 c4 14 4
28 2 31 -6 5 -289 10 -335 6z"/>
<path d="M140 1059 l0 -29 185 0 185 0 0 30 0 30 -185 -1 -185 0 0 -30z"/>
</g>
</svg>
