<svg width="38" height="24" viewBox="0 0 38 24" fill="none" xmlns="http://www.w3.org/2000/svg">
<path d="M13.2791 2.47949H24.5251V20.7165H13.2791V2.47949Z" fill="#D6D6D6"/>
<path d="M14.4382 11.5992C14.4384 9.84035 14.8404 8.10476 15.6136 6.5249C16.3867 4.94504 17.5105 3.56266 18.8992 2.48323C14.1092 -1.25377 7.23217 -0.70977 3.09917 3.73323C1.10753 5.86912 0 8.68084 0 11.6012C0 14.5216 1.10753 17.3333 3.09917 19.4692C7.23217 23.9122 14.1092 24.4572 18.8992 20.7192C17.5099 19.6394 16.3858 18.2564 15.6127 16.6758C14.8395 15.0952 14.4378 13.3588 14.4382 11.5992Z" fill="#B2B2B2"/>
<path d="M37.8002 11.5993C37.8002 16.0393 35.2462 20.0903 31.2232 22.0313C29.2506 22.9821 27.0516 23.3628 24.8742 23.1305C22.6968 22.8981 20.6276 22.0619 18.9002 20.7163C20.2881 19.6359 21.4114 18.2532 22.1846 16.6733C22.9578 15.0935 23.3605 13.3581 23.3622 11.5993C23.3622 8.04025 21.7172 4.67925 18.8992 2.48025C20.6268 1.13453 22.6962 0.298408 24.8738 0.0662296C27.0514 -0.165949 29.2506 0.215055 31.2232 1.16625C35.2462 3.10625 37.8002 7.15625 37.8002 11.5973V11.5993Z" fill="#E2E2E2"/>
</svg>
