<svg width="24" height="24" viewBox="0 0 24 24" fill="none" xmlns="http://www.w3.org/2000/svg">
<path fill-rule="evenodd" clip-rule="evenodd" d="M22.4238 17.2586V15.5146H22.0038V16.5266C21.9323 16.4347 21.84 16.3611 21.7345 16.3119C21.6289 16.2627 21.5132 16.2393 21.3968 16.2436C21.1287 16.2436 20.8715 16.3502 20.6819 16.5398C20.4923 16.7294 20.3858 16.9865 20.3858 17.2547C20.3858 17.5228 20.4923 17.7799 20.6819 17.9695C20.8715 18.1591 21.1287 18.2656 21.3968 18.2656C21.5132 18.27 21.6289 18.2466 21.7345 18.1974C21.84 18.1482 21.9323 18.0746 22.0038 17.9826V18.2176H22.4238V17.2576V17.2586ZM9.8768 16.2906H10.5648V16.6686H9.8808V17.5586C9.8808 17.7526 9.9578 17.8826 10.1598 17.8826C10.2912 17.8726 10.4178 17.8292 10.5278 17.7566L10.6488 18.1166C10.4914 18.215 10.3094 18.267 10.1238 18.2666C9.6258 18.2666 9.4518 17.9996 9.4518 17.5506V16.6706H9.0598V16.2927H9.4518V15.7066H9.8768V16.2927V16.2906ZM4.2828 18.2306V17.0166C4.28978 16.9147 4.27498 16.8124 4.23936 16.7166C4.20375 16.6208 4.14815 16.5336 4.07626 16.461C4.00436 16.3883 3.91782 16.3318 3.82239 16.2952C3.72697 16.2586 3.62484 16.2427 3.5228 16.2486C3.38912 16.2397 3.25549 16.2668 3.13587 16.3271C3.01625 16.3875 2.91504 16.4788 2.8428 16.5917C2.77686 16.4822 2.6826 16.3925 2.56996 16.3321C2.45732 16.2718 2.33047 16.2429 2.2028 16.2486C2.09163 16.243 1.98093 16.2666 1.88165 16.3169C1.78238 16.3673 1.69797 16.4427 1.6368 16.5357V16.2966H1.2168V18.2306H1.6408V17.1586C1.63169 17.0924 1.63735 17.025 1.65737 16.9613C1.67738 16.8975 1.71125 16.839 1.75656 16.7898C1.80186 16.7407 1.85748 16.7022 1.91941 16.6771C1.98135 16.652 2.04807 16.6409 2.1148 16.6446C2.3938 16.6446 2.5348 16.8266 2.5348 17.1546V18.2306H2.9598V17.1586C2.95108 17.0926 2.95698 17.0254 2.97707 16.9619C2.99716 16.8984 3.03096 16.84 3.07608 16.791C3.12119 16.742 3.17653 16.7035 3.23816 16.6782C3.2998 16.6529 3.36625 16.6414 3.4328 16.6446C3.7208 16.6446 3.8578 16.8266 3.8578 17.1546V18.2306H4.2828ZM20.9638 22.2186H20.5778L20.5798 19.9457H20.2928V23.5856H20.5958V22.4716H20.9818L21.9928 23.5856H22.3598L21.2068 22.3306L22.3388 21.2086H21.9748L20.9648 22.2197L20.9638 22.2186ZM12.2878 21.4236C12.2231 21.4827 12.1672 21.5507 12.1218 21.6256L12.1118 19.9576H11.8238V23.5976H12.1118V22.2426C12.1106 22.1329 12.1317 22.024 12.1738 21.9226C12.2134 21.8293 12.2712 21.7448 12.3438 21.6741C12.4165 21.6033 12.5025 21.5478 12.5968 21.5106C12.6964 21.4725 12.8022 21.4535 12.9088 21.4546C13.0188 21.4516 13.1288 21.4696 13.2318 21.5066C13.3225 21.5396 13.4046 21.5924 13.4721 21.6613C13.5396 21.7302 13.5907 21.8133 13.6218 21.9046C13.657 22.009 13.6742 22.1185 13.6728 22.2286V23.5986H13.9628V22.1406C13.9652 22.0025 13.9404 21.8652 13.8898 21.7366C13.8451 21.6212 13.7752 21.5171 13.6853 21.432C13.5953 21.3469 13.4876 21.2829 13.3698 21.2446C13.0823 21.1441 12.767 21.1584 12.4898 21.2846C12.4163 21.3217 12.3483 21.3689 12.2878 21.4247V21.4236ZM9.6498 20.0086C9.94044 20.009 10.2271 20.0761 10.4878 20.2046C10.6078 20.2656 10.7218 20.3426 10.8228 20.4326C10.9228 20.5216 11.0088 20.6226 11.0798 20.7366L10.8228 20.9076C10.6325 20.6239 10.3409 20.4236 10.0078 20.3476C9.69278 20.2717 9.36199 20.2951 9.0608 20.4146C8.88279 20.4847 8.72102 20.5905 8.58549 20.7255C8.44996 20.8605 8.34354 21.0219 8.2728 21.1996C8.11946 21.5963 8.11946 22.036 8.2728 22.4326C8.3435 22.6106 8.45002 22.7721 8.58574 22.9071C8.72147 23.0422 8.88351 23.1479 9.0618 23.2176C9.2488 23.2916 9.4488 23.3286 9.6498 23.3277C9.7698 23.3277 9.8898 23.3136 10.0058 23.2866C10.231 23.2371 10.4398 23.1311 10.6128 22.9786C10.6968 22.9046 10.7688 22.8197 10.8288 22.7267L11.0818 22.9107C11.0088 23.0207 10.9208 23.1206 10.8218 23.2076C10.6126 23.3864 10.3637 23.5126 10.0958 23.5756C9.71095 23.6633 9.30867 23.6337 8.9408 23.4907C8.72635 23.406 8.53089 23.2796 8.3658 23.1186C8.20178 22.9556 8.07251 22.761 7.9858 22.5466C7.80202 22.0763 7.80202 21.554 7.9858 21.0836C8.0728 20.8696 8.2018 20.6747 8.3658 20.5117C8.5308 20.3517 8.7258 20.2246 8.9408 20.1396C9.1658 20.0506 9.4068 20.0066 9.6498 20.0086ZM9.6498 20.0086H9.6418H9.6498ZM3.9508 20.0486C4.2208 20.0446 4.4908 20.0866 4.7478 20.1716C4.9728 20.2466 5.1788 20.3667 5.3548 20.5257C5.5218 20.6817 5.6518 20.8726 5.7368 21.0836C5.9148 21.5576 5.9148 22.0796 5.7368 22.5526C5.65214 22.7645 5.5217 22.9551 5.3548 23.1106C5.1788 23.2696 4.9728 23.3906 4.7478 23.4646C4.49096 23.5503 4.2215 23.5919 3.9508 23.5876H2.6588V20.0476H3.9508V20.0486ZM1.2888 23.5886H1.5988V20.0486H1.2888V23.5886ZM22.7278 23.4686H22.6828V23.5886H22.6608V23.4686H22.6158V23.4466H22.7298L22.7278 23.4686ZM22.9018 23.5886H22.8788V23.4726L22.8388 23.5736H22.8148L22.7748 23.4726V23.5876H22.7518V23.4466H22.7858L22.8258 23.5466L22.8668 23.4466H22.9018V23.5876V23.5886ZM2.9668 23.2946V20.3417L3.9518 20.3456C4.1828 20.3416 4.4138 20.3766 4.6338 20.4486C4.8188 20.5116 4.9888 20.6126 5.1308 20.7466C5.2668 20.8766 5.3708 21.0366 5.4368 21.2136C5.5738 21.6066 5.5738 22.0336 5.4368 22.4266C5.37149 22.6032 5.26684 22.7626 5.1308 22.8926C4.98794 23.0256 4.81856 23.1268 4.6338 23.1896C4.41344 23.2633 4.18211 23.2989 3.9498 23.2946H2.9668ZM15.8498 21.1776C15.9985 21.1749 16.1461 21.2038 16.2828 21.2624C16.4195 21.321 16.5422 21.408 16.6428 21.5176C16.7448 21.6286 16.8248 21.7596 16.8778 21.9016C16.9368 22.0576 16.9668 22.2236 16.9668 22.3906V22.5096H14.9728C14.9798 22.6376 15.0118 22.7616 15.0658 22.8776C15.1133 22.9805 15.1809 23.0728 15.2645 23.1492C15.3481 23.2256 15.4461 23.2846 15.5528 23.3226C15.6628 23.3626 15.7778 23.3826 15.8948 23.3816C16.0488 23.3846 16.2008 23.3526 16.3418 23.2906C16.4738 23.2286 16.5938 23.1446 16.6978 23.0416L16.8508 23.2436C16.6592 23.445 16.4058 23.5767 16.1308 23.6176C16.0468 23.6296 15.9608 23.6367 15.8768 23.6367C15.7125 23.6383 15.5494 23.6077 15.3968 23.5466C15.2545 23.4892 15.1256 23.4031 15.0181 23.2937C14.9106 23.1843 14.8267 23.0539 14.7718 22.9107C14.711 22.7517 14.6808 22.5828 14.6828 22.4126C14.6796 22.0855 14.7971 21.7686 15.0128 21.5226C15.1234 21.411 15.255 21.3224 15.4 21.262C15.5451 21.2016 15.7007 21.1705 15.8578 21.1706L15.8498 21.1776ZM15.5188 21.4946C15.624 21.4522 15.7364 21.4308 15.8498 21.4317C15.9543 21.4309 16.058 21.4509 16.1548 21.4903C16.2516 21.5298 16.3396 21.588 16.4138 21.6616C16.489 21.737 16.5494 21.8259 16.5918 21.9236C16.6388 22.0306 16.6668 22.1446 16.6748 22.2617H14.9748C14.9869 22.1459 15.0183 22.033 15.0678 21.9276C15.1564 21.7304 15.3181 21.5751 15.5188 21.4946ZM18.7298 21.1776C18.8988 21.1756 19.0658 21.2076 19.2218 21.2726C19.3698 21.3326 19.5018 21.4276 19.6078 21.5476L19.4218 21.7496C19.3321 21.6551 19.2238 21.5802 19.1036 21.5298C18.9834 21.4793 18.8541 21.4544 18.7238 21.4566C18.6019 21.4554 18.4811 21.4791 18.3688 21.5264C18.2565 21.5738 18.155 21.6436 18.0708 21.7316C17.9838 21.818 17.9151 21.9211 17.8688 22.0346C17.7759 22.2819 17.7759 22.5544 17.8688 22.8016C17.9362 22.971 18.0531 23.1161 18.2042 23.2181C18.3552 23.3202 18.5335 23.3743 18.7158 23.3736C18.8501 23.3749 18.9831 23.3473 19.1058 23.2927C19.2228 23.2407 19.3298 23.1676 19.4218 23.0786L19.6018 23.2806C19.4948 23.4006 19.3628 23.4936 19.2158 23.5556C19.0605 23.6199 18.8939 23.6522 18.7258 23.6507C18.5576 23.6526 18.3906 23.621 18.2348 23.5576C18.0904 23.499 17.9595 23.4115 17.85 23.3006C17.7405 23.1897 17.6547 23.0577 17.5978 22.9126C17.4778 22.5986 17.4778 22.2516 17.5978 21.9376C17.7118 21.6436 17.9418 21.4096 18.2348 21.2906C18.3908 21.2166 18.5608 21.1766 18.7348 21.1706L18.7298 21.1776ZM14.1508 16.2426C14.0482 16.2395 13.9466 16.2642 13.8569 16.314C13.7671 16.3638 13.6924 16.4369 13.6408 16.5257V16.2906H13.2248V18.2246H13.6448V17.1406C13.6448 16.8206 13.7828 16.6426 14.0498 16.6426C14.1398 16.6416 14.2298 16.6576 14.3128 16.6916L14.4428 16.2866C14.3465 16.2521 14.2451 16.2341 14.1428 16.2337L14.1508 16.2426ZM7.9378 16.2426C8.2148 16.2326 8.4888 16.3026 8.7278 16.4446L8.5408 16.7846C8.35598 16.6783 8.14699 16.6212 7.9338 16.6186C7.7038 16.6186 7.5658 16.7157 7.5658 16.8447C7.5658 16.9747 7.7118 17.0106 7.8938 17.0346L8.0958 17.0637C8.5158 17.1237 8.7718 17.2736 8.7718 17.6416C8.7718 18.0096 8.4478 18.2726 7.8898 18.2726C7.5909 18.2812 7.29715 18.1936 7.0518 18.0226L7.2548 17.6946C7.4398 17.8316 7.6668 17.9036 7.8978 17.8966C8.1848 17.8966 8.3378 17.8116 8.3378 17.6616C8.3378 17.5526 8.2298 17.4916 7.9988 17.4597L7.7968 17.4317C7.3638 17.3717 7.1288 17.1766 7.1288 16.8616C7.1288 16.4766 7.4488 16.2416 7.9388 16.2416L7.9378 16.2426ZM19.9938 16.2426C19.8912 16.2395 19.7896 16.2642 19.6999 16.314C19.6101 16.3638 19.5354 16.4369 19.4838 16.5257V16.2906H19.0678V18.2246H19.4878V17.1406C19.4878 16.8206 19.6258 16.6426 19.8928 16.6426C19.9828 16.6416 20.0728 16.6576 20.1558 16.6916L20.2858 16.2866C20.1895 16.2521 20.0881 16.2342 19.9858 16.2337L19.9938 16.2426ZM14.8668 17.9876C14.7698 17.8925 14.6938 17.7781 14.6435 17.6519C14.5932 17.5257 14.5698 17.3904 14.5748 17.2547V17.2466C14.5697 17.1107 14.5931 16.9751 14.6434 16.8487C14.6937 16.7223 14.7699 16.6078 14.8671 16.5125C14.9642 16.4172 15.0802 16.3433 15.2076 16.2954C15.335 16.2476 15.4709 16.2269 15.6068 16.2346C15.8588 16.2226 16.1068 16.3046 16.3018 16.4656L16.0998 16.8056C15.9543 16.6947 15.7768 16.6337 15.5938 16.6316C15.4357 16.6406 15.2871 16.7098 15.1783 16.8249C15.0696 16.94 15.009 17.0923 15.009 17.2506C15.009 17.409 15.0696 17.5613 15.1783 17.6764C15.2871 17.7915 15.4357 17.8607 15.5938 17.8696C15.7768 17.8677 15.9543 17.8067 16.0998 17.6957L16.3018 18.0357C16.107 18.1964 15.8591 18.2785 15.6068 18.2656C15.4709 18.2734 15.3349 18.2527 15.2074 18.2048C15.08 18.157 14.964 18.083 14.8668 17.9876ZM18.5148 17.2547V16.2876H18.0948V16.5226C18.0232 16.4306 17.9307 16.3569 17.825 16.3077C17.7193 16.2584 17.6033 16.2351 17.4868 16.2396C17.2187 16.2396 16.9615 16.3462 16.7719 16.5358C16.5823 16.7254 16.4758 16.9825 16.4758 17.2506C16.4758 17.5188 16.5823 17.7759 16.7719 17.9655C16.9615 18.1551 17.2187 18.2617 17.4868 18.2617C17.6032 18.266 17.7189 18.2426 17.8245 18.1934C17.93 18.1442 18.0223 18.0706 18.0938 17.9786V18.2136H18.5138V17.2536L18.5148 17.2547ZM17.5548 16.7046C17.4781 16.7018 17.4016 16.714 17.3296 16.7407C17.2577 16.7674 17.1917 16.808 17.1354 16.8601C17.0791 16.9123 17.0337 16.9751 17.0017 17.0448C16.9697 17.1146 16.9517 17.19 16.9488 17.2666C16.9459 17.3433 16.9582 17.4199 16.9848 17.4918C17.0115 17.5638 17.0521 17.6298 17.1043 17.686C17.1565 17.7423 17.2192 17.7878 17.289 17.8198C17.3587 17.8518 17.4341 17.8698 17.5108 17.8727C17.6657 17.8785 17.8165 17.8226 17.9302 17.7172C18.0438 17.6118 18.111 17.4655 18.1168 17.3106C18.1226 17.1558 18.0667 17.0049 17.9613 16.8913C17.8559 16.7776 17.7097 16.7105 17.5548 16.7046ZM11.8728 16.2436C11.74 16.2455 11.6089 16.2735 11.487 16.326C11.365 16.3785 11.2546 16.4545 11.162 16.5497C11.0694 16.6448 10.9965 16.7573 10.9474 16.8807C10.8983 17.0041 10.874 17.1359 10.8758 17.2687C10.8776 17.4014 10.9056 17.5325 10.9581 17.6545C11.0106 17.7764 11.0866 17.8869 11.1818 17.9794C11.277 18.072 11.3895 18.1449 11.5128 18.194C11.6362 18.2432 11.768 18.2675 11.9008 18.2656C12.1898 18.2756 12.4718 18.1796 12.6938 17.9956L12.4918 17.6836C12.3321 17.8116 12.1344 17.8827 11.9298 17.8856C11.7907 17.8978 11.6523 17.8551 11.5442 17.7668C11.4361 17.6784 11.3667 17.5514 11.3508 17.4126H12.7888V17.2506C12.7888 16.6436 12.4128 16.2396 11.8708 16.2396L11.8728 16.2436ZM12.2148 16.7526C12.1229 16.6648 11.9999 16.6169 11.8728 16.6196H11.8648C11.7349 16.6153 11.6083 16.6619 11.5123 16.7495C11.4163 16.8371 11.3583 16.9588 11.3508 17.0886H12.3618C12.3592 16.9616 12.3063 16.8408 12.2148 16.7526ZM21.4648 16.7086C21.386 16.7021 21.3068 16.7117 21.2318 16.7366C21.1568 16.7616 21.0877 16.8015 21.0285 16.8539C20.9694 16.9064 20.9215 16.9702 20.8877 17.0417C20.854 17.1131 20.835 17.1907 20.8321 17.2696C20.8291 17.3486 20.8421 17.4274 20.8704 17.5012C20.8987 17.5749 20.9417 17.6422 20.9967 17.699C21.0517 17.7557 21.1177 17.8007 21.1906 17.8312C21.2635 17.8618 21.3418 17.8772 21.4208 17.8766C21.5713 17.8753 21.7156 17.8161 21.8235 17.7111C21.9315 17.6062 21.9948 17.4636 22.0003 17.3132C22.0059 17.1627 21.9532 17.016 21.8533 16.9034C21.7533 16.7908 21.6138 16.721 21.4638 16.7086H21.4648ZM6.6548 17.2586V16.2916H6.2348V16.5266C6.16332 16.4347 6.071 16.3611 5.96545 16.3119C5.85991 16.2627 5.74417 16.2393 5.6278 16.2436C5.35966 16.2436 5.10251 16.3502 4.91291 16.5398C4.72331 16.7294 4.6168 16.9865 4.6168 17.2547C4.6168 17.5228 4.72331 17.7799 4.91291 17.9695C5.10251 18.1591 5.35966 18.2656 5.6278 18.2656C5.744 18.2699 5.85954 18.2464 5.9649 18.1972C6.07026 18.148 6.16242 18.0745 6.2338 17.9826V18.2176H6.6548V17.2576V17.2586ZM5.6948 16.7086C5.61604 16.7021 5.53678 16.7117 5.4618 16.7366C5.38682 16.7616 5.31768 16.8015 5.25855 16.8539C5.19941 16.9064 5.15152 16.9702 5.11775 17.0417C5.08398 17.1131 5.06503 17.1907 5.06206 17.2696C5.05908 17.3486 5.07214 17.4274 5.10044 17.5012C5.12874 17.5749 5.17169 17.6422 5.22672 17.699C5.28174 17.7557 5.34768 17.8007 5.42056 17.8312C5.49345 17.8618 5.57177 17.8772 5.6508 17.8766C5.80141 17.8756 5.94581 17.8165 6.05393 17.7116C6.16205 17.6067 6.22556 17.4642 6.23123 17.3137C6.2369 17.1632 6.18429 17.0163 6.08437 16.9036C5.98445 16.7909 5.8449 16.721 5.6948 16.7086ZM23.1248 17.9436C23.1765 17.9435 23.2262 17.9632 23.2638 17.9986C23.2866 18.0206 23.3035 18.0479 23.3129 18.0781C23.3223 18.1083 23.324 18.1404 23.3177 18.1715C23.3114 18.2025 23.2974 18.2314 23.277 18.2555C23.2565 18.2797 23.2303 18.2983 23.2008 18.3096C23.1766 18.3206 23.1504 18.3264 23.1238 18.3266C23.0855 18.3264 23.048 18.3153 23.0158 18.2946C22.9836 18.2739 22.9579 18.2444 22.9418 18.2097C22.9291 18.1802 22.9241 18.1479 22.9272 18.116C22.9303 18.084 22.9415 18.0534 22.9597 18.0269C22.9779 18.0005 23.0024 17.979 23.0311 17.9647C23.0598 17.9503 23.0917 17.9434 23.1238 17.9446L23.1248 17.9436ZM23.1828 18.2736C23.1642 18.2818 23.1441 18.2859 23.1238 18.2857V18.2876C23.1034 18.287 23.0833 18.2823 23.0648 18.2736C23.0469 18.2662 23.0306 18.2553 23.0168 18.2416C22.9916 18.214 22.9777 18.178 22.9777 18.1406C22.9777 18.1033 22.9916 18.0673 23.0168 18.0396C23.0307 18.0254 23.0474 18.0141 23.0658 18.0064C23.0841 17.9987 23.1039 17.9947 23.1238 17.9946C23.1434 17.9947 23.1628 17.9987 23.1809 18.0065C23.1989 18.0142 23.2152 18.0255 23.2288 18.0396C23.254 18.0673 23.2679 18.1033 23.2679 18.1406C23.2679 18.178 23.254 18.214 23.2288 18.2416C23.2155 18.255 23.2 18.2659 23.1828 18.2736ZM23.1358 18.0456C23.1558 18.0446 23.1738 18.0506 23.1888 18.0616C23.1949 18.0667 23.1997 18.0732 23.2029 18.0805C23.206 18.0878 23.2073 18.0957 23.2068 18.1036C23.2072 18.1105 23.2062 18.1173 23.2038 18.1237C23.2014 18.13 23.1976 18.1358 23.1928 18.1406C23.1809 18.1514 23.1658 18.1577 23.1498 18.1586L23.2088 18.2256H23.1618L23.1078 18.1586H23.0898V18.2256H23.0508V18.0476L23.1358 18.0456ZM23.0918 18.1286V18.0796L23.1358 18.0917C23.1439 18.0891 23.1527 18.0891 23.1608 18.0917C23.1622 18.0944 23.1629 18.0975 23.1629 18.1006C23.1629 18.1038 23.1622 18.1069 23.1608 18.1096C23.1624 18.1126 23.1632 18.1158 23.1632 18.1192C23.1632 18.1225 23.1624 18.1257 23.1608 18.1286C23.1526 18.1311 23.144 18.1311 23.1358 18.1286H23.0918Z" fill="#B2B2B2"/>
<path d="M8.59277 1.55859H14.9638V13.0076H8.59277V1.55859Z" fill="#D6D6D6"/>
<path d="M8.99661 7.28343C8.99556 6.18073 9.24539 5.09225 9.72721 4.10038C10.209 3.10851 10.9102 2.23926 11.7776 1.55843C10.7036 0.714597 9.41383 0.189927 8.05574 0.0443825C6.69765 -0.101162 5.32601 0.138291 4.09756 0.735377C2.86912 1.33246 1.83342 2.26309 1.10884 3.42092C0.384248 4.57875 0 5.91707 0 7.28293C0 8.6488 0.384248 9.98712 1.10884 11.1449C1.83342 12.3028 2.86912 13.2334 4.09756 13.8305C5.32601 14.4276 6.69765 14.667 8.05574 14.5215C9.41383 14.3759 10.7036 13.8513 11.7776 13.0074C10.9105 12.3266 10.2096 11.4575 9.72798 10.4658C9.24635 9.47412 8.99659 8.38588 8.99761 7.28343H8.99661Z" fill="#B2B2B2"/>
<path d="M23.5586 7.28338C23.5586 8.64964 23.1742 9.98833 22.4493 11.1464C21.7245 12.3045 20.6884 13.2353 19.4595 13.8324C18.2306 14.4295 16.8585 14.6688 15.5001 14.5229C14.1416 14.377 12.8517 13.8518 11.7776 13.0074C12.6448 12.3262 13.3459 11.4569 13.828 10.4652C14.3101 9.47343 14.5606 8.38511 14.5606 7.28238C14.5606 6.17966 14.3101 5.09134 13.828 4.09958C13.3459 3.10783 12.6448 2.23855 11.7776 1.55738C12.8516 0.712864 14.1415 0.187604 15.4999 0.0416593C16.8583 -0.104286 18.2304 0.134974 19.4593 0.732084C20.6881 1.32919 21.7242 2.26005 22.4489 3.41822C23.1736 4.5764 23.5578 5.91514 23.5576 7.28138V7.28338H23.5586Z" fill="#E2E2E2"/>
</svg>
