<svg width="46" height="15" viewBox="0 0 46 15" fill="none" xmlns="http://www.w3.org/2000/svg">
<path fill-rule="evenodd" clip-rule="evenodd" d="M22.728 0.256L19.661 14.183H15.951L19.021 0.256H22.729H22.728ZM38.332 9.248L40.285 4.018L41.408 9.248H38.332ZM42.47 14.183H45.9L42.908 0.256H39.741C39.406 0.250542 39.0769 0.344786 38.7956 0.526757C38.5143 0.708729 38.2934 0.970216 38.161 1.278L32.597 14.183H36.492L37.265 12.103H42.024L42.47 14.183ZM32.79 9.635C32.807 5.959 27.558 5.756 27.594 4.115C27.604 3.615 28.095 3.083 29.167 2.947C29.699 2.88 31.162 2.828 32.824 3.571L33.474 0.618C32.3625 0.212747 31.1891 0.00363926 30.006 0C26.34 0 23.76 1.893 23.738 4.604C23.715 6.609 25.579 7.728 26.985 8.394C28.43 9.077 28.915 9.514 28.909 10.124C28.899 11.06 27.756 11.472 26.69 11.488C24.825 11.517 23.743 10.999 22.88 10.608L22.208 13.66C23.074 14.047 24.674 14.383 26.333 14.4C30.229 14.4 32.778 12.53 32.791 9.635H32.79ZM17.429 0.256L11.421 14.183H7.5L4.541 3.068C4.361 2.384 4.205 2.133 3.659 1.845C2.769 1.375 1.296 0.935 0 0.661L0.0890002 0.256H6.399C7.203 0.256 7.927 0.776 8.109 1.676L9.672 9.736L13.531 0.256H17.427H17.429Z" fill="#C9C9C9"/>
</svg>
